<svg width="26" height="26" viewBox="0 0 26 26" fill="none" xmlns="http://www.w3.org/2000/svg">
<g id="Group">
<g id="Group_2">
<path id="Path" d="M12.9953 18.5029C12.7202 18.5029 12.4951 18.728 12.4981 19.0031C12.4981 19.2783 12.7232 19.5033 12.9983 19.5033C13.2734 19.5033 13.4985 19.2783 13.4985 19.0031C13.4985 18.728 13.2734 18.5029 12.9953 18.5029" stroke="#9094A3" stroke-width="1.5" stroke-linecap="round" stroke-linejoin="round"/>
<path id="Path_2" d="M12.9953 12.501C12.7202 12.501 12.4951 12.7261 12.4981 13.0012C12.4981 13.2763 12.7232 13.5014 12.9983 13.5014C13.2734 13.5014 13.4985 13.2763 13.4985 13.0012C13.4985 12.7261 13.2734 12.501 12.9953 12.501" stroke="#9094A3" stroke-width="1.5" stroke-linecap="round" stroke-linejoin="round"/>
<path id="Path_3" d="M12.9953 6.49805C12.7202 6.49805 12.4951 6.72314 12.4981 6.99826C12.4981 7.27337 12.7232 7.49846 12.9983 7.49846C13.2734 7.49846 13.4985 7.27337 13.4985 6.99826C13.4985 6.72314 13.2734 6.49805 12.9953 6.49805" stroke="#9094A3" stroke-width="1.5" stroke-linecap="round" stroke-linejoin="round"/>
</g>
</g>
</svg>
