<svg width="16" height="16" viewBox="0 0 16 16" fill="none" xmlns="http://www.w3.org/2000/svg">
<g id="Group">
<path id="Path" d="M12.1668 12.1667V13.8333C12.167 14.2754 11.9914 14.6994 11.6788 15.012C11.3662 15.3246 10.9422 15.5001 10.5002 15.5H3.00016C2.5581 15.5001 2.1341 15.3246 1.82152 15.012C1.50893 14.6994 1.33337 14.2754 1.3335 13.8333V4.66667C1.33337 4.2246 1.50893 3.80061 1.82152 3.48802C2.1341 3.17543 2.5581 2.99988 3.00016 3H4.66683" stroke="#636570" stroke-linecap="round" stroke-linejoin="round"/>
<path id="Path_2" fill-rule="evenodd" clip-rule="evenodd" d="M14.1331 2.55868L12.6083 1.03392C12.2665 0.692056 11.8028 0.5 11.3193 0.5H6.48991C5.48314 0.5 4.66699 1.31615 4.66699 2.32292V10.3438C4.66699 11.3505 5.48314 12.1667 6.48991 12.1667H12.8441C13.8508 12.1667 14.667 11.3505 14.667 10.3438V3.84767C14.667 3.3642 14.4749 2.90054 14.1331 2.55868Z" stroke="#636570" stroke-linecap="round" stroke-linejoin="round"/>
<path id="Path_3" d="M8.41699 7.58366H10.917" stroke="#636570" stroke-linecap="round" stroke-linejoin="round"/>
<path id="Path_4" d="M9.66667 6.33301V8.83301" stroke="#636570" stroke-linecap="round" stroke-linejoin="round"/>
<path id="Path_5" d="M14.667 4.25H12.167C11.4766 4.25 10.917 3.69036 10.917 3V0.5" stroke="#636570" stroke-linecap="round" stroke-linejoin="round"/>
</g>
</svg>
