<svg width="26" height="26" viewBox="0 0 26 26" fill="none" xmlns="http://www.w3.org/2000/svg">
<g id="Group">
<path id="Path" d="M12.655 13.3942L8.65332 9.39258" stroke="#1B1C1F" stroke-linecap="round" stroke-linejoin="round"/>
<path id="Path_2" d="M12.3936 5.65137L16.3952 9.65303" stroke="#1B1C1F" stroke-linecap="round" stroke-linejoin="round"/>
<path id="Path_3" d="M3.99609 22.0041H14.5865" stroke="#1B1C1F" stroke-linecap="round" stroke-linejoin="round"/>
<path id="Path_4" d="M4.89648 22.0042L5.44171 20.3715C5.71339 19.5558 6.47577 19.0049 7.3355 19.0029H11.2471C12.1094 19.0019 12.8754 19.5534 13.1479 20.3715L13.6891 22.0042" stroke="#1B1C1F" stroke-linecap="round" stroke-linejoin="round"/>
<path id="Path_5" fill-rule="evenodd" clip-rule="evenodd" d="M9.89107 8.2985L7.69015 10.0542C7.28321 10.3797 7.03375 10.8628 7.00398 11.383C6.97421 11.9032 7.16693 12.4116 7.53408 12.7814L9.21078 14.4661C9.57492 14.8321 10.0777 15.0257 10.5933 14.9984C11.1089 14.9711 11.5885 14.7255 11.9119 14.323L13.6886 12.1161C14.109 11.5934 14.5854 11.1184 15.1092 10.6995L17.3102 8.94376C17.7171 8.6183 17.9666 8.13523 17.9963 7.615C18.0261 7.09476 17.8334 6.58639 17.4662 6.21663L15.7925 4.53293C15.4284 4.16689 14.9256 3.97328 14.41 4.00059C13.8944 4.0279 13.4148 4.27353 13.0914 4.67599L11.3127 6.88291C10.8922 7.40551 10.4154 7.88023 9.89107 8.2985Z" stroke="#1B1C1F" stroke-linecap="round" stroke-linejoin="round"/>
<path id="Path_6" d="M15.3774 10.4863L21.3038 15.5014C21.8678 15.9806 22.1187 16.7336 21.9548 17.4553C21.791 18.1771 21.2396 18.7479 20.524 18.9366C19.8083 19.1253 19.0471 18.9007 18.5487 18.3536L13.3125 12.5872" stroke="#1B1C1F" stroke-linecap="round" stroke-linejoin="round"/>
</g>
</svg>
