<svg width="24" height="24" viewBox="0 0 24 24" fill="none" xmlns="http://www.w3.org/2000/svg">
<path fill-rule="evenodd" clip-rule="evenodd" d="M8.22222 10H5.77778C4.79556 10 4 9.20444 4 8.22222V5.77778C4 4.79556 4.79556 4 5.77778 4H8.22222C9.20444 4 10 4.79556 10 5.77778V8.22222C10 9.20444 9.20444 10 8.22222 10Z" stroke="#1B1C1F" stroke-linecap="round" stroke-linejoin="round"/>
<path fill-rule="evenodd" clip-rule="evenodd" d="M18.2222 10H15.7778C14.7956 10 14 9.20444 14 8.22222V5.77778C14 4.79556 14.7956 4 15.7778 4H18.2222C19.2044 4 20 4.79556 20 5.77778V8.22222C20 9.20444 19.2044 10 18.2222 10Z" stroke="#1B1C1F" stroke-linecap="round" stroke-linejoin="round"/>
<path fill-rule="evenodd" clip-rule="evenodd" d="M8.22222 20H5.77778C4.79556 20 4 19.2044 4 18.2222V15.7778C4 14.7956 4.79556 14 5.77778 14H8.22222C9.20444 14 10 14.7956 10 15.7778V18.2222C10 19.2044 9.20444 20 8.22222 20Z" stroke="#1B1C1F" stroke-linecap="round" stroke-linejoin="round"/>
<path fill-rule="evenodd" clip-rule="evenodd" d="M18.2222 20H15.7778C14.7956 20 14 19.2044 14 18.2222V15.7778C14 14.7956 14.7956 14 15.7778 14H18.2222C19.2044 14 20 14.7956 20 15.7778V18.2222C20 19.2044 19.2044 20 18.2222 20Z" stroke="#1B1C1F" stroke-linecap="round" stroke-linejoin="round"/>
</svg>
