<svg width="24" height="24" viewBox="0 0 24 24" fill="none" xmlns="http://www.w3.org/2000/svg">
<g id="Group">
<g id="Group_2">
<path id="Path" d="M14.1213 9.88024C15.2923 11.0512 15.2923 12.9522 14.1213 14.1252C12.9503 15.2962 11.0493 15.2962 9.8763 14.1252C8.7053 12.9542 8.7053 11.0532 9.8763 9.88024C11.0493 8.70724 12.9493 8.70724 14.1213 9.88024" stroke="#999999" stroke-width="1.5" stroke-linecap="round" stroke-linejoin="round"/>
<path id="Path_2" fill-rule="evenodd" clip-rule="evenodd" d="M3 12C3 11.341 3.152 10.689 3.446 10.088V10.088C4.961 6.991 8.309 5 12 5C15.691 5 19.039 6.991 20.554 10.088V10.088C20.848 10.689 21 11.341 21 12C21 12.659 20.848 13.311 20.554 13.912V13.912C19.039 17.009 15.691 19 12 19C8.309 19 4.961 17.009 3.446 13.912V13.912C3.152 13.311 3 12.659 3 12Z" stroke="#999999" stroke-width="1.5" stroke-linecap="round" stroke-linejoin="round"/>
</g>
</g>
</svg>
