<svg width="26" height="26" viewBox="0 0 26 26" fill="none" xmlns="http://www.w3.org/2000/svg">
<g id="Group">
<path id="Path" d="M15.5582 14.5577C14.9186 15.6361 13.6764 16.2036 12.4426 15.9811C11.2087 15.7585 10.243 14.7928 10.0205 13.559C9.79795 12.3251 10.3654 11.0829 11.4438 10.4434" stroke="#999999" stroke-width="1.5" stroke-linecap="round" stroke-linejoin="round"/>
<path id="Path_2" d="M18.9964 17.9961C17.2716 19.3043 15.1646 20.0094 12.9998 20.0028C9.41273 20.0667 6.09837 18.0953 4.44226 14.9127C3.84737 13.7069 3.84737 12.2929 4.44226 11.0871C5.27051 9.43773 6.59081 8.08646 8.22056 7.22021" stroke="#999999" stroke-width="1.5" stroke-linecap="round" stroke-linejoin="round"/>
<path id="Path_3" d="M21.4268 15.1345C21.4669 15.0585 21.5191 14.9903 21.5571 14.9128C22.152 13.707 22.152 12.293 21.5571 11.0872C19.901 7.90465 16.5866 5.93323 12.9995 5.99711C12.7746 5.99711 12.556 6.02712 12.334 6.04175" stroke="#999999" stroke-width="1.5" stroke-linecap="round" stroke-linejoin="round"/>
<path id="Path_4" d="M22.0032 21.0037L4.99609 3.99658" stroke="#999999" stroke-width="1.5" stroke-linecap="round" stroke-linejoin="round"/>
</g>
</svg>
