<svg width="20" height="20" viewBox="0 0 20 20" fill="none" xmlns="http://www.w3.org/2000/svg">
<path fill-rule="evenodd" clip-rule="evenodd" d="M16.6667 10.8507C16.6667 13.9963 12.796 16.333 10.9501 17.2712C10.3546 17.5757 9.64917 17.5763 9.05308 17.2728C7.20847 16.3355 3.33337 13.9931 3.33337 10.8507V6.30773C3.3395 5.88203 3.6619 5.52762 4.08512 5.48133C5.85339 5.34697 7.54867 4.72002 8.97887 3.67153C9.58493 3.22049 10.4151 3.22049 11.0212 3.67153C12.4514 4.72002 14.1467 5.34697 15.9149 5.48133C16.3382 5.5276 16.6606 5.88202 16.6667 6.30773V10.8507Z" stroke="#636570" stroke-linecap="round" stroke-linejoin="round"/>
<path d="M11.3334 9.58325L9.66763 11.2499L8.66675 10.2499" stroke="#636570" stroke-linecap="round" stroke-linejoin="round"/>
</svg>
