<svg width="16" height="16" viewBox="0 0 16 16" fill="none" xmlns="http://www.w3.org/2000/svg">
<g id="Group">
<path id="Path" d="M4.76776 2.06548C5.74407 3.04179 5.74407 4.62471 4.76776 5.60102C3.79146 6.57732 2.20854 6.57732 1.23223 5.60102C0.255923 4.62471 0.255923 3.04179 1.23223 2.06548C2.20854 1.08917 3.79146 1.08917 4.76776 2.06548" stroke="#636570" stroke-linecap="round" stroke-linejoin="round"/>
<path id="Path_2" d="M14.6667 3.83317H5.5" stroke="#636570" stroke-linecap="round" stroke-linejoin="round"/>
<path id="Path_3" d="M14.7678 10.3987C15.7441 11.375 15.7441 12.958 14.7678 13.9343C13.7915 14.9106 12.2085 14.9106 11.2322 13.9343C10.2559 12.958 10.2559 11.375 11.2322 10.3987C12.2085 9.42243 13.7915 9.42243 14.7678 10.3987" stroke="#636570" stroke-linecap="round" stroke-linejoin="round"/>
<path id="Path_4" d="M1.33337 12.1667H10.5" stroke="#636570" stroke-linecap="round" stroke-linejoin="round"/>
</g>
</svg>
