<svg width="120" height="36" viewBox="0 0 120 36" fill="none" xmlns="http://www.w3.org/2000/svg">
<g clip-path="url(#clip0_145_701)">
<path d="M20.4063 6.65186C14.1165 6.65186 8.99982 11.7686 8.99982 18.0584C8.99982 24.3482 14.1165 29.4649 20.4063 29.4649C22.0839 29.4649 23.6754 29.0986 25.1107 28.446L21.9598 25.2951C21.4593 25.4032 20.9408 25.4612 20.4084 25.4612C16.3266 25.4612 13.0055 22.1402 13.0055 18.0584C13.0055 13.9766 16.3246 10.6556 20.4063 10.6556C24.4881 10.6556 27.8092 13.9766 27.8092 18.0584C27.8092 19.3736 27.4609 20.6067 26.8583 21.6777L21.8237 16.6431L18.993 19.4737L24.0297 24.5103L26.9284 27.409C29.8791 25.3451 31.8149 21.926 31.8149 18.0584C31.8129 11.7686 26.6962 6.65186 20.4063 6.65186Z" fill="#386AEA"/>
<path d="M20.4063 6.65186C14.1165 6.65186 8.99982 11.7686 8.99982 18.0584C8.99982 24.3482 14.1165 29.4649 20.4063 29.4649C22.0839 29.4649 23.6754 29.0986 25.1107 28.446L21.9598 25.2951C21.4593 25.4032 20.9408 25.4612 20.4084 25.4612C16.3266 25.4612 13.0055 22.1402 13.0055 18.0584C13.0055 13.9766 16.3246 10.6556 20.4063 10.6556C24.4881 10.6556 27.8092 13.9766 27.8092 18.0584C27.8092 19.3736 27.4609 20.6067 26.8583 21.6777L21.8237 16.6431L18.993 19.4737L24.0297 24.5103L26.9284 27.409C29.8791 25.3451 31.8149 21.926 31.8149 18.0584C31.8129 11.7686 26.6962 6.65186 20.4063 6.65186Z" fill="url(#paint0_radial_145_701)"/>
</g>
<g clip-path="url(#clip1_145_701)">
<path d="M45.001 24.2554C44.3166 24.6465 43.3618 24.9886 42.1659 24.9886C38.9919 24.9886 36.3751 22.5707 36.3751 18.8785C36.3751 15.1864 39.0864 12.4263 42.8013 12.4263C43.9484 12.4263 45.0238 12.6967 46.0014 13.1856L48.7615 12.6967V30.0983H45.0466V24.2815L44.9977 24.2587L45.001 24.2554ZM45.0498 15.9946C44.5122 15.7502 43.8278 15.5318 43.0946 15.5318C41.1622 15.5318 40.1129 16.9983 40.1129 18.7808C40.1129 20.5633 41.1394 21.9808 43.0197 21.9808C43.7268 21.9808 44.4861 21.7593 45.0466 21.3682V15.9913L45.0498 15.9946Z" fill="#232323"/>
<path d="M51.2349 12.6967H54.8749V14.3098L54.9238 14.3358C55.7547 13.1627 56.9279 12.55 58.4171 12.55C58.6615 12.55 58.9287 12.5761 59.1992 12.6478V16.1412C58.9059 16.0662 58.5377 16.0173 58.1955 16.0173C56.8985 16.0173 55.8264 16.4084 54.9466 17.4349V24.7181H51.2316V12.6967H51.2349Z" fill="#232323"/>
<path d="M66.2412 12.4263C70.0767 12.4263 72.9379 15.1636 72.9379 18.7058C72.9379 22.2481 70.08 24.9854 66.2412 24.9854C62.4025 24.9854 59.5446 22.2481 59.5446 18.7058C59.5446 15.1636 62.4025 12.4263 66.2412 12.4263ZM66.2412 21.7853C67.926 21.7853 69.223 20.4167 69.223 18.7058C69.223 16.995 67.9292 15.6263 66.2412 15.6263C64.5532 15.6263 63.2595 16.995 63.2595 18.7058C63.2595 20.4167 64.5565 21.7853 66.2412 21.7853Z" fill="#232323"/>
<path d="M80.5863 12.4263C84.4218 12.4263 87.283 15.1636 87.283 18.7058C87.283 22.2481 84.4218 24.9854 80.5863 24.9854C76.7508 24.9854 73.8896 22.2481 73.8896 18.7058C73.8896 15.1636 76.7475 12.4263 80.5863 12.4263ZM80.5863 21.7853C82.2711 21.7853 83.5681 20.4167 83.5681 18.7058C83.5681 16.995 82.2743 15.6263 80.5863 15.6263C78.8983 15.6263 77.6046 16.995 77.6046 18.7058C77.6046 20.4167 78.8983 21.7853 80.5863 21.7853Z" fill="#232323"/>
<path d="M96.7919 24.3303C96.2281 24.6953 95.1299 24.9918 94.0773 24.9918C92.8553 24.9918 91.7082 24.6008 90.949 23.7926C90.3135 23.1083 89.8964 22.1079 89.8964 20.2015V15.7794H87.9412V12.6999H89.8964V9.56831L93.6113 8.93286V12.6967H96.7886V15.7762H93.6113V19.8072C93.6113 20.9804 93.8786 21.8602 95.0028 21.8602C95.6155 21.8602 96.2998 21.6158 96.7886 21.3714V24.3271L96.7919 24.3303Z" fill="#232323"/>
<path d="M104.147 12.4263C107.982 12.4263 110.843 15.1636 110.843 18.7058C110.843 22.2481 107.982 24.9854 104.147 24.9854C100.311 24.9854 97.45 22.2481 97.45 18.7058C97.45 15.1636 100.308 12.4263 104.147 12.4263ZM104.147 21.7853C105.831 21.7853 107.128 20.4167 107.128 18.7058C107.128 16.995 105.831 15.6263 104.147 15.6263C102.462 15.6263 101.165 16.995 101.165 18.7058C101.165 20.4167 102.462 21.7853 104.147 21.7853Z" fill="#232323"/>
</g>
<defs>
<radialGradient id="paint0_radial_145_701" cx="0" cy="0" r="1" gradientUnits="userSpaceOnUse" gradientTransform="translate(31.8149 6.65185) rotate(114.32) scale(42.9344 42.9369)">
<stop stop-color="#2DB3FF"/>
<stop offset="1" stop-color="#2DB3FF" stop-opacity="0"/>
</radialGradient>
<clipPath id="clip0_145_701">
<rect width="22.8131" height="22.8111" fill="white" transform="translate(8.99982 6.65186)"/>
</clipPath>
<clipPath id="clip1_145_701">
<rect width="74.6248" height="24.1146" fill="white" transform="translate(36.375 6)"/>
</clipPath>
</defs>
</svg>
