<svg width="28" height="28" viewBox="0 0 28 28" fill="none" xmlns="http://www.w3.org/2000/svg">
<rect width="28" height="28" rx="14" fill="#386AEA"/>
<path d="M11.6648 10.2727H12.9858V16.0128C12.9858 16.6236 12.8423 17.1648 12.5554 17.6364C12.2685 18.1051 11.8651 18.4744 11.3452 18.7443C10.8253 19.0114 10.2159 19.1449 9.51705 19.1449C8.82102 19.1449 8.21307 19.0114 7.69318 18.7443C7.1733 18.4744 6.76989 18.1051 6.48295 17.6364C6.19602 17.1648 6.05256 16.6236 6.05256 16.0128V10.2727H7.36932V15.9062C7.36932 16.3011 7.45597 16.652 7.62926 16.9588C7.8054 17.2656 8.05398 17.5071 8.375 17.6832C8.69602 17.8565 9.0767 17.9432 9.51705 17.9432C9.96023 17.9432 10.3423 17.8565 10.6634 17.6832C10.9872 17.5071 11.2344 17.2656 11.4048 16.9588C11.5781 16.652 11.6648 16.3011 11.6648 15.9062V10.2727ZM21.9442 10.2727V19H20.734L16.2979 12.5994H16.217V19H14.9002V10.2727H16.119L20.5593 16.6818H20.6403V10.2727H21.9442Z" fill="white"/>
</svg>
