<svg width="24" height="24" viewBox="0 0 24 24" fill="none" xmlns="http://www.w3.org/2000/svg">
<path fill-rule="evenodd" clip-rule="evenodd" d="M14.9474 4H18.3158C19.2463 4 20 4.75368 20 5.68421V9.05263C20 9.98316 19.2463 10.7368 18.3158 10.7368H14.9474C14.0169 10.7368 13.2632 9.98316 13.2632 9.05263V5.68421C13.2632 4.75368 14.0169 4 14.9474 4Z" stroke="#1B1C1F" stroke-linecap="round" stroke-linejoin="round"/>
<path d="M16.6315 10.7368V4" stroke="#1B1C1F" stroke-linecap="round" stroke-linejoin="round"/>
<path fill-rule="evenodd" clip-rule="evenodd" d="M5.68421 13.2632H9.05263C9.98316 13.2632 10.7368 14.0169 10.7368 14.9474V18.3158C10.7368 19.2463 9.98316 20 9.05263 20H5.68421C4.75368 20 4 19.2463 4 18.3158V14.9474C4 14.0169 4.75368 13.2632 5.68421 13.2632Z" stroke="#1B1C1F" stroke-linecap="round" stroke-linejoin="round"/>
<path d="M10.24 13.76L4.49683 19.5032" stroke="#1B1C1F" stroke-linecap="round" stroke-linejoin="round"/>
<path d="M16.4858 16.4868C16.4058 16.5668 16.4058 16.6973 16.4866 16.7765C16.5666 16.8565 16.6971 16.8565 16.7771 16.7765C16.8571 16.6965 16.8571 16.5659 16.7771 16.4859C16.6971 16.4059 16.5666 16.4059 16.4858 16.4868" stroke="#1B1C1F" stroke-linecap="round" stroke-linejoin="round"/>
<path fill-rule="evenodd" clip-rule="evenodd" d="M4 9.05263V5.68421C4 4.75368 4.75368 4 5.68421 4H9.05263C9.98316 4 10.7368 4.75368 10.7368 5.68421V9.05263C10.7368 9.98316 9.98316 10.7368 9.05263 10.7368H5.68421C4.75368 10.7368 4 9.98316 4 9.05263Z" stroke="#1B1C1F" stroke-linecap="round" stroke-linejoin="round"/>
<path fill-rule="evenodd" clip-rule="evenodd" d="M13.2632 18.3158V14.9474C13.2632 14.0169 14.0169 13.2632 14.9474 13.2632H18.3158C19.2463 13.2632 20 14.0169 20 14.9474V18.3158C20 19.2463 19.2463 20 18.3158 20H14.9474C14.0169 20 13.2632 19.2463 13.2632 18.3158Z" stroke="#1B1C1F" stroke-linecap="round" stroke-linejoin="round"/>
</svg>
