<svg width="16" height="16" viewBox="0 0 16 16" fill="none" xmlns="http://www.w3.org/2000/svg">
<path fill-rule="evenodd" clip-rule="evenodd" d="M2.3753 8C2.3753 8.2475 2.3978 8.495 2.4278 8.735L1.10447 9.77C0.811132 10 0.731132 10.4108 0.917799 10.7333L2.09447 12.7692C2.2803 13.0917 2.6753 13.2275 3.02113 13.0892L4.20613 12.6133C4.4403 12.5192 4.70113 12.5567 4.91113 12.6958C5.09447 12.8175 5.28447 12.9292 5.48113 13.0292C5.70613 13.1433 5.86947 13.3475 5.9053 13.5975L6.08613 14.8583C6.13863 15.2267 6.45447 15.5 6.82613 15.5H9.17363C9.5453 15.5 9.86113 15.2267 9.91363 14.8583L10.0945 13.5983C10.1303 13.3483 10.2953 13.1425 10.5211 13.0292C10.717 12.9308 10.9061 12.82 11.0886 12.6992C11.3003 12.5592 11.562 12.5192 11.797 12.6142L12.9795 13.0892C13.3245 13.2275 13.7195 13.0917 13.9061 12.7692L15.0828 10.7333C15.2695 10.4108 15.1895 9.99917 14.8961 9.77L13.5728 8.735C13.6028 8.495 13.6253 8.2475 13.6253 8C13.6253 7.7525 13.6028 7.505 13.5728 7.265L14.8961 6.23C15.1895 6 15.2695 5.58917 15.0828 5.26667L13.9061 3.23083C13.7203 2.90833 13.3253 2.7725 12.9795 2.91083L11.797 3.38583C11.562 3.48 11.3003 3.44083 11.0886 3.30083C10.9061 3.18 10.717 3.06917 10.5211 2.97083C10.2953 2.8575 10.1303 2.65167 10.0945 2.40167L9.91447 1.14167C9.86197 0.773333 9.54613 0.5 9.17446 0.5H6.82697C6.4553 0.5 6.13947 0.773333 6.08697 1.14167L5.9053 2.40333C5.86947 2.6525 5.7053 2.8575 5.48113 2.97167C5.28447 3.07167 5.09447 3.18417 4.91113 3.305C4.7003 3.44333 4.43947 3.48083 4.2053 3.38667L3.02113 2.91083C2.6753 2.7725 2.2803 2.90833 2.09447 3.23083L0.917799 5.26667C0.731132 5.58917 0.811132 6.00083 1.10447 6.23L2.4278 7.265C2.3978 7.505 2.3753 7.7525 2.3753 8V8Z" stroke="#636570" stroke-linecap="round" stroke-linejoin="round"/>
<path d="M9.59161 6.40877C10.4703 7.28745 10.4703 8.71207 9.59161 9.59075C8.71292 10.4694 7.28831 10.4694 6.40962 9.59075C5.53094 8.71207 5.53094 7.28745 6.40962 6.40877C7.28831 5.53009 8.71292 5.53009 9.59161 6.40877" stroke="#636570" stroke-linecap="round" stroke-linejoin="round"/>
</svg>
