<svg width="20" height="20" viewBox="0 0 20 20" fill="none" xmlns="http://www.w3.org/2000/svg">
<path fill-rule="evenodd" clip-rule="evenodd" d="M2.797 12.2562V8.44498C2.797 7.16284 3.47888 5.97755 4.58654 5.33248L8.18804 3.23641C9.30771 2.58493 10.6915 2.58493 11.8112 3.23641L15.4127 5.33248C16.5211 5.97755 17.203 7.16284 17.203 8.44498V12.2562C17.203 13.5383 16.5211 14.7236 15.4135 15.3687L11.812 17.4647C10.6923 18.1162 9.30851 18.1162 8.18884 17.4647L4.58734 15.3687C3.47888 14.7236 2.797 13.5383 2.797 12.2562Z" stroke="#636570" stroke-linecap="round" stroke-linejoin="round"/>
<path d="M10 7.14917C10.982 7.14917 11.7784 7.9455 11.7784 8.92751C11.7784 9.90952 10.982 10.7059 10 10.7059C9.01801 10.7059 8.22168 9.90952 8.22168 8.92751C8.22168 7.9455 9.01801 7.14917 10 7.14917" stroke="#636570" stroke-linecap="round" stroke-linejoin="round"/>
<path d="M13.2014 13.552C13.1085 13.3175 12.9637 13.1078 12.7788 12.9365V12.9365C12.4659 12.6468 12.0577 12.4851 11.6311 12.4851C10.9196 12.4851 9.08126 12.4851 8.36976 12.4851C7.94318 12.4851 7.53421 12.6468 7.22128 12.9365V12.9365C7.03641 13.107 6.89235 13.3175 6.79871 13.552" stroke="#636570" stroke-linecap="round" stroke-linejoin="round"/>
</svg>
