<svg width="120" height="36" viewBox="0 0 120 36" fill="none" xmlns="http://www.w3.org/2000/svg">
<g clip-path="url(#clip0_633_3216)">
<path d="M20.4065 6.65137C14.1167 6.65137 9 11.7681 9 18.0579C9 24.3477 14.1167 29.4644 20.4065 29.4644C22.0841 29.4644 23.6756 29.0981 25.1109 28.4455L21.96 25.2946C21.4595 25.4027 20.941 25.4607 20.4085 25.4607C16.3268 25.4607 13.0057 22.1397 13.0057 18.0579C13.0057 13.9761 16.3248 10.6551 20.4065 10.6551C24.4883 10.6551 27.8094 13.9761 27.8094 18.0579C27.8094 19.3731 27.461 20.6063 26.8585 21.6772L21.8238 16.6426L18.9932 19.4732L24.0299 24.5099L26.9286 27.4085C29.8793 25.3446 31.8151 21.9255 31.8151 18.0579C31.8131 11.7681 26.6963 6.65137 20.4065 6.65137Z" fill="white"/>
</g>
<g clip-path="url(#clip1_633_3216)">
<path d="M45.0008 24.2549C44.3165 24.646 43.3617 24.9882 42.1658 24.9882C38.9918 24.9882 36.375 22.5702 36.375 18.8781C36.375 15.1859 39.0863 12.4258 42.8012 12.4258C43.9483 12.4258 45.0237 12.6963 46.0013 13.1851L48.7614 12.6963V30.0978H45.0465V24.281L44.9976 24.2582L45.0008 24.2549ZM45.0497 15.9941C44.512 15.7497 43.8277 15.5313 43.0945 15.5313C41.1621 15.5313 40.1128 16.9978 40.1128 18.7803C40.1128 20.5628 41.1393 21.9804 43.0195 21.9804C43.7267 21.9804 44.486 21.7588 45.0465 21.3677V15.9908L45.0497 15.9941Z" fill="white"/>
<path d="M51.2347 12.6964H54.8747V14.3095L54.9236 14.3356C55.7546 13.1624 56.9277 12.5498 58.4169 12.5498C58.6613 12.5498 58.9285 12.5759 59.199 12.6476V16.1409C58.9057 16.066 58.5375 16.0171 58.1953 16.0171C56.8984 16.0171 55.8262 16.4081 54.9464 17.4346V24.7179H51.2314V12.6964H51.2347Z" fill="white"/>
<path d="M66.2416 12.4258C70.0771 12.4258 72.9383 15.1631 72.9383 18.7053C72.9383 22.2476 70.0804 24.9849 66.2416 24.9849C62.4028 24.9849 59.5449 22.2476 59.5449 18.7053C59.5449 15.1631 62.4028 12.4258 66.2416 12.4258ZM66.2416 21.7848C67.9264 21.7848 69.2233 20.4162 69.2233 18.7053C69.2233 16.9945 67.9296 15.6258 66.2416 15.6258C64.5536 15.6258 63.2599 16.9945 63.2599 18.7053C63.2599 20.4162 64.5568 21.7848 66.2416 21.7848Z" fill="white"/>
<path d="M80.5863 12.4258C84.4218 12.4258 87.283 15.1631 87.283 18.7053C87.283 22.2476 84.4218 24.9849 80.5863 24.9849C76.7508 24.9849 73.8896 22.2476 73.8896 18.7053C73.8896 15.1631 76.7475 12.4258 80.5863 12.4258ZM80.5863 21.7848C82.2711 21.7848 83.5681 20.4162 83.5681 18.7053C83.5681 16.9945 82.2743 15.6258 80.5863 15.6258C78.8983 15.6258 77.6046 16.9945 77.6046 18.7053C77.6046 20.4162 78.8983 21.7848 80.5863 21.7848Z" fill="white"/>
<path d="M96.7921 24.3301C96.2283 24.6951 95.1301 24.9916 94.0776 24.9916C92.8556 24.9916 91.7085 24.6006 90.9492 23.7924C90.3138 23.1081 89.8966 22.1076 89.8966 20.2013V15.7792H87.9414V12.6997H89.8966V9.56807L93.6116 8.93262V12.6964H96.7888V15.7759H93.6116V19.807C93.6116 20.9801 93.8788 21.86 95.0031 21.86C95.6157 21.86 96.3 21.6156 96.7888 21.3712V24.3268L96.7921 24.3301Z" fill="white"/>
<path d="M104.147 12.4258C107.982 12.4258 110.844 15.1631 110.844 18.7053C110.844 22.2476 107.982 24.9849 104.147 24.9849C100.311 24.9849 97.4502 22.2476 97.4502 18.7053C97.4502 15.1631 100.308 12.4258 104.147 12.4258ZM104.147 21.7848C105.832 21.7848 107.129 20.4162 107.129 18.7053C107.129 16.9945 105.832 15.6258 104.147 15.6258C102.462 15.6258 101.165 16.9945 101.165 18.7053C101.165 20.4162 102.462 21.7848 104.147 21.7848Z" fill="white"/>
</g>
<defs>
<clipPath id="clip0_633_3216">
<rect width="22.8131" height="22.8111" fill="white" transform="translate(9 6.65137)"/>
</clipPath>
<clipPath id="clip1_633_3216">
<rect width="74.6248" height="24.1146" fill="white" transform="translate(36.375 6)"/>
</clipPath>
</defs>
</svg>
