<svg width="150" height="40" viewBox="0 0 150 40" fill="none" xmlns="http://www.w3.org/2000/svg">
<g id="Layer_1">
<path id="Vector" d="M19.7785 26.3252C17.4858 29.208 14.5013 29.5472 12.8462 29.5472C9.96337 29.5472 7.67068 28.8146 5.47295 26.6169C3.27522 24.4191 2 21.6381 2 17.8734C2 14.1088 3.37019 11.3752 5.26946 9.37421C7.22299 7.37319 9.75988 6.29468 12.8869 6.29468C15.0371 6.29468 17.574 6.83054 19.7717 9.6184V7.02725H26.8058V39.9932H19.7717V26.3184L19.7785 26.3252ZM10.8927 13.8714C9.91589 14.8007 9.23079 16.2184 9.23079 17.826C9.23079 19.2436 9.81414 20.9055 10.9401 21.9772C11.9644 22.954 13.3821 23.4899 14.698 23.4899C16.2106 23.4899 17.6758 22.8522 18.7 21.828C19.7243 20.7563 20.2601 19.3386 20.2601 17.9684C20.2601 16.5982 19.7243 15.0856 18.5983 13.9664C17.9132 13.2813 16.6447 12.352 14.6912 12.352C13.2735 12.352 11.9101 12.8879 10.8791 13.8646L10.8927 13.8714Z" fill="#386AEA"/>
<path id="Vector_2" d="M32.2802 7.03416H39.3143V10.4528C39.9519 9.23188 40.9287 8.10589 42.0479 7.42758C43.2214 6.695 44.4423 6.49829 45.8057 6.49829C46.6875 6.49829 47.3184 6.59325 48.0984 6.83745L47.705 13.4306C46.7757 12.9422 45.7515 12.6506 44.5305 12.6506C43.0179 12.6506 41.8919 13.1864 41.0169 14.1157C39.4568 15.7776 39.3075 18.1178 39.3075 19.9763V28.8147H32.2734V7.03416H32.2802Z" fill="#386AEA"/>
<path id="Vector_3" d="M71.5469 26.0336C69.5934 27.9872 66.2696 29.5473 62.0234 29.5473C57.7772 29.5473 54.4535 27.9872 52.4999 26.0336C50.3022 23.8359 49.2305 20.7089 49.2305 17.9278C49.2305 15.1467 50.3022 12.0197 52.4999 9.822C54.4535 7.86846 57.7772 6.30835 62.0234 6.30835C66.2696 6.30835 69.5934 7.86846 71.5469 9.822C73.7446 12.0197 74.8164 15.1467 74.8164 17.9278C74.8164 20.7089 73.7446 23.8359 71.5469 26.0336ZM58.0689 13.824C57.0446 14.8483 56.4545 16.171 56.4545 17.9278C56.4545 19.9288 57.2345 21.1973 58.0689 22.0316C58.9507 22.9134 60.2191 23.5917 62.0709 23.5917C63.631 23.5917 64.9537 23.0558 65.978 22.0316C67.0022 21.0073 67.5923 19.6846 67.5923 17.9278C67.5923 16.171 67.009 14.8483 65.978 13.824C64.9469 12.7998 63.631 12.2639 62.0234 12.2639C60.4158 12.2639 59.0931 12.7998 58.0689 13.824Z" fill="#386AEA"/>
<path id="Vector_4" d="M100.457 26.0336C98.5035 27.9872 95.1798 29.5473 90.9336 29.5473C86.6873 29.5473 83.3636 27.9872 81.4101 26.0336C79.2124 23.8359 78.1406 20.7089 78.1406 17.9278C78.1406 15.1467 79.2124 12.0197 81.4101 9.822C83.3636 7.86846 86.6873 6.30835 90.9336 6.30835C95.1798 6.30835 98.5035 7.86846 100.457 9.822C102.655 12.0197 103.727 15.1467 103.727 17.9278C103.727 20.7089 102.655 23.8359 100.457 26.0336ZM86.979 13.824C85.9548 14.8483 85.3646 16.171 85.3646 17.9278C85.3646 19.9288 86.1447 21.1973 86.979 22.0316C87.8608 22.9134 89.1293 23.5917 90.981 23.5917C92.5412 23.5917 93.8639 23.0558 94.8881 22.0316C95.9124 21.0073 96.5025 19.6846 96.5025 17.9278C96.5025 16.171 95.9192 14.8483 94.8881 13.824C93.8571 12.7998 92.5412 12.2639 90.9336 12.2639C89.326 12.2639 88.0033 12.7998 86.979 13.824Z" fill="#386AEA"/>
<path id="Vector_5" d="M115.353 12.698V28.8147H108.319V12.698H105.877V7.03408H108.319V0H115.353V7.03408H119.701V12.698H115.353Z" fill="#386AEA"/>
<path id="Vector_6" d="M143.971 26.0336C142.017 27.9872 138.693 29.5473 134.447 29.5473C130.201 29.5473 126.877 27.9872 124.924 26.0336C122.726 23.8359 121.654 20.7089 121.654 17.9278C121.654 15.1467 122.726 12.0197 124.924 9.822C126.877 7.86846 130.201 6.30835 134.447 6.30835C138.693 6.30835 142.017 7.86846 143.971 9.822C146.168 12.0197 147.24 15.1467 147.24 17.9278C147.24 20.7089 146.168 23.8359 143.971 26.0336ZM130.493 13.824C129.468 14.8483 128.878 16.171 128.878 17.9278C128.878 19.9288 129.658 21.1973 130.493 22.0316C131.374 22.9134 132.643 23.5917 134.495 23.5917C136.055 23.5917 137.378 23.0558 138.402 22.0316C139.426 21.0073 140.016 19.6846 140.016 17.9278C140.016 16.171 139.433 14.8483 138.402 13.824C137.371 12.7998 136.055 12.2639 134.447 12.2639C132.84 12.2639 131.517 12.7998 130.493 13.824Z" fill="#386AEA"/>
</g>
</svg>
