<svg width="26" height="26" viewBox="0 0 26 26" fill="none" xmlns="http://www.w3.org/2000/svg">
<g id="Group">
<g id="Group_2">
<g id="Group 2">
<path id="Path" d="M10.4953 18.5029C10.2202 18.5029 9.99508 18.728 9.99808 19.0031C9.99808 19.2783 10.2232 19.5033 10.4983 19.5033C10.7734 19.5033 10.9985 19.2783 10.9985 19.0031C10.9985 18.728 10.7734 18.5029 10.4953 18.5029" stroke="#9094A3" stroke-width="1.5" stroke-linecap="round" stroke-linejoin="round"/>
<path id="Path_2" d="M10.4953 12.5C10.2202 12.5 9.99508 12.7251 9.99808 13.0002C9.99808 13.2753 10.2232 13.5004 10.4983 13.5004C10.7734 13.5004 10.9985 13.2753 10.9985 13.0002C10.9985 12.7251 10.7734 12.5 10.4953 12.5" stroke="#9094A3" stroke-width="1.5" stroke-linecap="round" stroke-linejoin="round"/>
<path id="Path_3" d="M10.4953 6.49805C10.2202 6.49805 9.99508 6.72314 9.99808 6.99826C9.99808 7.27337 10.2232 7.49846 10.4983 7.49846C10.7734 7.49846 10.9985 7.27337 10.9985 6.99826C10.9985 6.72314 10.7734 6.49805 10.4953 6.49805" stroke="#9094A3" stroke-width="1.5" stroke-linecap="round" stroke-linejoin="round"/>
<path id="Path_4" d="M15.6965 18.5029C15.4213 18.5029 15.1962 18.728 15.1992 19.0031C15.1992 19.2783 15.4243 19.5033 15.6995 19.5033C15.9746 19.5033 16.1997 19.2783 16.1997 19.0031C16.1997 18.728 15.9746 18.5029 15.6965 18.5029" stroke="#9094A3" stroke-width="1.5" stroke-linecap="round" stroke-linejoin="round"/>
<path id="Path_5" d="M15.6965 12.5C15.4213 12.5 15.1962 12.7251 15.1992 13.0002C15.1992 13.2753 15.4243 13.5004 15.6995 13.5004C15.9746 13.5004 16.1997 13.2753 16.1997 13.0002C16.1997 12.7251 15.9746 12.5 15.6965 12.5" stroke="#9094A3" stroke-width="1.5" stroke-linecap="round" stroke-linejoin="round"/>
<path id="Path_6" d="M15.6965 6.49805C15.4213 6.49805 15.1962 6.72314 15.1992 6.99826C15.1992 7.27337 15.4243 7.49846 15.6995 7.49846C15.9746 7.49846 16.1997 7.27337 16.1997 6.99826C16.1997 6.72314 15.9746 6.49805 15.6965 6.49805" stroke="#9094A3" stroke-width="1.5" stroke-linecap="round" stroke-linejoin="round"/>
</g>
</g>
</g>
</svg>
