<svg width="16" height="16" viewBox="0 0 16 16" fill="none" xmlns="http://www.w3.org/2000/svg">
<path fill-rule="evenodd" clip-rule="evenodd" d="M3.54224 8.588C3.51824 8.396 3.50024 8.198 3.50024 8C3.50024 7.802 3.51824 7.604 3.54224 7.412L2.48357 6.584C2.24891 6.40067 2.18491 6.07133 2.33424 5.81333L3.27557 4.18467C3.42424 3.92667 3.74024 3.818 4.01691 3.92867L4.96424 4.30933C5.15157 4.38467 5.36024 4.35467 5.52891 4.244C5.67557 4.14733 5.82757 4.05733 5.98491 3.97733C6.16424 3.886 6.29557 3.722 6.32424 3.52267L6.46957 2.51333C6.51157 2.21867 6.76424 2 7.06157 2H8.93957C9.23691 2 9.48957 2.21867 9.53157 2.51333L9.67557 3.52133C9.70424 3.72133 9.83624 3.886 10.0169 3.97667C10.1736 4.05533 10.3249 4.144 10.4709 4.24067C10.6402 4.35267 10.8496 4.384 11.0376 4.30867L11.9836 3.92867C12.2602 3.818 12.5762 3.92667 12.7249 4.18467L13.6662 5.81333C13.8156 6.07133 13.7516 6.4 13.5169 6.584L12.4582 7.412C12.4822 7.604 12.5002 7.802 12.5002 8C12.5002 8.198 12.4822 8.396 12.4582 8.588L13.5169 9.416C13.7516 9.59933 13.8156 9.92867 13.6662 10.1867L12.7249 11.8153C12.5756 12.0733 12.2596 12.182 11.9836 12.0713L11.0376 11.6913C10.8496 11.6153 10.6402 11.6473 10.4709 11.7593C10.3249 11.856 10.1736 11.9447 10.0169 12.0233C9.83624 12.114 9.70424 12.2787 9.67557 12.4787L9.5309 13.4867C9.4889 13.7813 9.23624 14 8.93891 14H7.06091C6.76357 14 6.51091 13.7813 6.46891 13.4867L6.32424 12.478C6.29557 12.278 6.16491 12.1147 5.98491 12.0233C5.82757 11.9433 5.67557 11.854 5.52891 11.7567C5.36091 11.6453 5.15224 11.6153 4.96491 11.6907L4.01691 12.0713C3.74024 12.182 3.42424 12.0733 3.27557 11.8153L2.33424 10.1867C2.18491 9.92867 2.24891 9.6 2.48357 9.416L3.54224 8.588ZM9.27319 9.2726C9.97613 8.56965 9.97613 7.42996 9.27319 6.72701C8.57024 6.02407 7.43055 6.02407 6.7276 6.72701C6.02465 7.42996 6.02465 8.56965 6.7276 9.2726C7.43055 9.97555 8.57024 9.97555 9.27319 9.2726Z" fill="#CED1D8"/>
</svg>
