<svg width="18" height="18" viewBox="0 0 18 18" fill="none" xmlns="http://www.w3.org/2000/svg">
<g id="Group 5">
<path id="Path" fill-rule="evenodd" clip-rule="evenodd" d="M5.22222 7H2.77778C1.79556 7 1 6.20444 1 5.22222V2.77778C1 1.79556 1.79556 1 2.77778 1H5.22222C6.20444 1 7 1.79556 7 2.77778V5.22222C7 6.20444 6.20444 7 5.22222 7Z" stroke="#1B1C1F" stroke-linecap="round" stroke-linejoin="round"/>
<path id="Path_2" fill-rule="evenodd" clip-rule="evenodd" d="M15.2222 7H12.7778C11.7956 7 11 6.20444 11 5.22222V2.77778C11 1.79556 11.7956 1 12.7778 1H15.2222C16.2044 1 17 1.79556 17 2.77778V5.22222C17 6.20444 16.2044 7 15.2222 7Z" stroke="#1B1C1F" stroke-linecap="round" stroke-linejoin="round"/>
<path id="Path_3" fill-rule="evenodd" clip-rule="evenodd" d="M5.22222 17H2.77778C1.79556 17 1 16.2044 1 15.2222V12.7778C1 11.7956 1.79556 11 2.77778 11H5.22222C6.20444 11 7 11.7956 7 12.7778V15.2222C7 16.2044 6.20444 17 5.22222 17Z" stroke="#1B1C1F" stroke-linecap="round" stroke-linejoin="round"/>
<path id="Path_4" fill-rule="evenodd" clip-rule="evenodd" d="M15.2222 17H12.7778C11.7956 17 11 16.2044 11 15.2222V12.7778C11 11.7956 11.7956 11 12.7778 11H15.2222C16.2044 11 17 11.7956 17 12.7778V15.2222C17 16.2044 16.2044 17 15.2222 17Z" stroke="#1B1C1F" stroke-linecap="round" stroke-linejoin="round"/>
</g>
</svg>
