<svg width="200" height="60" viewBox="0 0 200 60" fill="none" xmlns="http://www.w3.org/2000/svg">
<g id="Logo">
<rect width="200" height="60" rx="8" fill="#EF3124"/>
<path id="path" d="M15 45.4557H37.4503V49.9994H15V45.4557ZM177.355 30.8699L184.433 23.2503H179.158L173.358 29.5832V23.2503H169.154V39.2635H173.378V32.5184L179.581 39.2635H185L177.355 30.8699ZM39.923 31.9254C39.8097 34.941 39.4182 35.514 37.7079 35.514V39.2736H38.3467C42.643 39.2736 43.663 37.1123 43.8176 32.2973L44.003 26.9696H47.9697V39.2635H52.1733V23.2503H40.2115L39.923 31.9254ZM21.6764 34.6797H30.537L32.0103 39.2635H36.9248L30.3 20.0034C29.6612 18.1437 28.9194 16.666 26.3848 16.666C23.8503 16.666 23.0776 18.1437 22.3976 20.0034L15.4533 39.2635H20.0691L21.6764 34.6797ZM26.1685 21.6922H26.2818L29.2491 30.8196H23.0055L26.1685 21.6922ZM124.367 25.5221H119.679V20.9985H130.559V16.9776H115.269V39.2635H124.367C129.405 39.2635 132.3 36.8108 132.3 32.3275C132.3 28.0753 129.364 25.5221 124.367 25.5221ZM124.15 35.2326H119.679V29.4425H124.15C126.479 29.4425 127.787 30.4477 127.787 32.3375C127.787 34.2273 126.479 35.2326 124.15 35.2326ZM82.5776 22.8783V16.9475H78.3842V22.8783C76.1824 22.9492 74.0993 23.8698 72.5925 25.4378C71.0858 27.006 70.2784 29.0934 70.3479 31.2418C70.2729 33.3946 71.0773 35.4883 72.5845 37.0624C74.0915 38.6366 76.1777 39.5621 78.3842 39.6355V45.6668H82.5879V39.6355C83.6808 39.6004 84.756 39.3554 85.7517 38.9143C86.7475 38.4733 87.6443 37.8449 88.3909 37.0653C89.1373 36.2855 89.7188 35.3699 90.1021 34.3706C90.4854 33.3713 90.6628 32.3081 90.6242 31.2418C90.6683 30.1749 90.4941 29.11 90.112 28.1095C89.7297 27.1089 89.1471 26.1927 88.3981 25.4141C87.649 24.6357 86.7486 24.0104 85.7493 23.575C84.7499 23.1397 83.6718 22.9028 82.5776 22.8783ZM78.3945 35.7653C77.282 35.6461 76.2621 35.105 75.5548 34.2588C74.8474 33.4126 74.5093 32.3291 74.6133 31.2418C74.5227 30.1573 74.8657 29.0806 75.5706 28.2374C76.2754 27.3941 77.2875 26.8498 78.3945 26.7183V35.7653ZM82.5982 35.7653V26.7183C83.7052 26.8498 84.7173 27.3941 85.4221 28.2374C86.1271 29.0806 86.4701 30.1573 86.3794 31.2418C86.478 32.328 86.1379 33.4087 85.4315 34.2538C84.7252 35.0988 83.7085 35.6412 82.5982 35.7653ZM106.378 34.348V28.9499C106.378 25.0094 103.812 22.5466 99.5054 22.5466C95.1988 22.5466 92.6848 25.1602 92.4788 27.8844H96.7339C96.8782 27.3013 97.517 26.2659 99.4951 26.2659C99.865 26.2195 100.24 26.2575 100.591 26.3771C100.944 26.4967 101.262 26.6945 101.522 26.9549C101.781 27.2153 101.976 27.5311 102.089 27.8773C102.203 28.2236 102.232 28.5908 102.174 28.9499H98.0527C94.323 28.9499 92.1079 30.8699 92.1079 34.0464C92.0788 34.8044 92.2132 35.56 92.5023 36.2641C92.7915 36.9683 93.229 37.6053 93.7864 38.1341C94.3438 38.6628 95.0089 39.0714 95.7386 39.3336C96.4681 39.5957 97.246 39.7053 98.0218 39.6556C98.8977 39.7005 99.7713 39.5341 100.566 39.1712C101.36 38.8083 102.05 38.26 102.576 37.5747C102.918 38.1392 103.416 38.5974 104.015 38.8962C104.613 39.1952 105.285 39.3225 105.955 39.2635H107.408V35.5643C106.697 35.5643 106.378 35.2326 106.378 34.348ZM102.174 33.3427C102.191 33.7387 102.122 34.1337 101.971 34.5018C101.821 34.8698 101.592 35.2025 101.3 35.4779C101.008 35.7534 100.659 35.9653 100.277 36.0998C99.8949 36.2342 99.4879 36.288 99.083 36.2579C97.5685 36.2579 96.3733 35.7251 96.3733 34.1268C96.3733 32.5285 97.7024 32.2973 98.8255 32.2973H102.174V33.3427ZM62.6412 28.1156H59.6224V23.2503H55.4188V39.2635H62.7133C67.2776 39.2635 68.8951 36.3685 68.8951 33.6343C68.9158 30.1059 66.6491 28.1156 62.6412 28.1156ZM62.3321 35.7653H59.6224V31.7444H62.3321C63.7848 31.7444 64.6606 32.3878 64.6606 33.7549C64.6606 35.122 63.8261 35.7653 62.3321 35.7653ZM148.342 34.348V28.9499C148.342 25.0094 145.776 22.5466 141.47 22.5466C137.163 22.5466 134.649 25.1602 134.443 27.8844H138.698C138.842 27.3013 139.481 26.2659 141.459 26.2659C141.829 26.2195 142.204 26.2575 142.556 26.3771C142.908 26.4967 143.226 26.6945 143.486 26.9549C143.746 27.2153 143.94 27.5311 144.054 27.8773C144.167 28.2236 144.196 28.5908 144.138 28.9499H140.017C136.287 28.9499 134.072 30.8699 134.072 34.0464C134.043 34.8044 134.177 35.56 134.467 36.2641C134.755 36.9683 135.193 37.6053 135.75 38.1341C136.308 38.6628 136.973 39.0714 137.703 39.3336C138.432 39.5957 139.21 39.7053 139.986 39.6556C140.87 39.7089 141.754 39.5467 142.559 39.1835C143.362 38.8202 144.061 38.2673 144.592 37.5747C144.928 38.1293 145.418 38.5812 146.004 38.8795C146.59 39.1779 147.25 39.3109 147.909 39.2635H149.362V35.5643C148.63 35.5643 148.342 35.2326 148.342 34.348ZM144.159 33.3427C144.174 33.7383 144.104 34.1325 143.953 34.4999C143.801 34.8672 143.573 35.1992 143.281 35.4743C142.989 35.7493 142.641 35.9614 142.26 36.0965C141.879 36.2315 141.473 36.2864 141.068 36.2579C139.553 36.2579 138.358 35.7251 138.358 34.1268C138.358 32.5285 139.687 32.2973 140.81 32.2973H144.159V33.3427ZM161.767 29.2113H155.966V23.2503H151.762V39.2736H155.966V32.9607H161.767V39.2635H165.97V23.2503H161.767V29.2113Z" fill="white"/>
</g>
</svg>
